<svg xmlns="http://www.w3.org/2000/svg" viewBox="0 0 320 180" width="320" height="180" role="img" aria-label="Off-road car">
  <defs>
    <linearGradient id="g" x1="0" y1="0" x2="1" y2="1">
      <stop offset="0" stop-color="#378ADD"/>
      <stop offset="0.55" stop-color="#534AB7"/>
      <stop offset="1" stop-color="#26215C"/>
    </linearGradient>
  </defs>
  <rect width="320" height="180" fill="url(#g)"/>
  <g transform="translate(28,58) scale(4.2)" fill="#04121a"><circle cx="18" cy="29" r="7" fill="#04121a"/><circle cx="46" cy="29" r="7" fill="#04121a"/><path d="M5 27 L5 13 Q5 10 9 10 L41 10 Q45 10 45 13 L45 18 L53 19 L53 27 Z"/><circle cx="18" cy="29" r="3.15" fill="#fff"/><circle cx="46" cy="29" r="3.15" fill="#fff"/><rect x="10" y="7" width="30" height="2" rx="1"/><rect x="14" y="7" width="2" height="3"/><rect x="34" y="7" width="2" height="3"/><rect x="12" y="12" width="14" height="6" rx="1" fill="rgba(255,255,255,.30)"/><rect x="28" y="12" width="12" height="6" rx="1" fill="rgba(255,255,255,.30)"/></g>
  <text x="20" y="160" font-family="Chakra Petch, sans-serif" font-size="20" font-weight="700" fill="#ffffff" letter-spacing="1">Off-road</text>
</svg>
